<svg width="37" height="36" viewBox="0 0 37 36" fill="none" xmlns="http://www.w3.org/2000/svg">
<path d="M26.7212 22.6415H25.0951L24.5188 22.0858C26.5359 19.7393 27.7503 16.693 27.7503 13.3791C27.7503 5.98971 21.7606 0 14.3713 0C6.9819 0 0.992188 5.98971 0.992188 13.3791C0.992188 20.7684 6.9819 26.7581 14.3713 26.7581C17.6852 26.7581 20.7315 25.5437 23.0779 23.5266L23.6337 24.1029V25.729L33.9253 36L36.9922 32.9331L26.7212 22.6415ZM14.3713 22.6415C9.24605 22.6415 5.10883 18.5043 5.10883 13.3791C5.10883 8.25386 9.24605 4.11664 14.3713 4.11664C19.4965 4.11664 23.6337 8.25386 23.6337 13.3791C23.6337 18.5043 19.4965 22.6415 14.3713 22.6415Z" fill="#EE1D4C"/>
</svg>
